# xmcd
#
# Track frame offsets:
#	150
#	20851
#	41459
#	64568
#	85264
#	105541
#	121472
#	138483
#
# Disc length: 2186 seconds
#
# Revision: 3
# Processed by: cddbd v1.5.2PL0 Copyright (c) Steve Scherf et al.
# Submitted via: audiograbber 1.83.01
#
DISCID=68088808
DTITLE=BAP - X für 'e U [CD 2)
DYEAR=2006
DGENRE=Deutschrock
TTITLE0=Wolfgang Niedecken, Nick Nikitakis, Alexander Büchel - Häzzbloot [Urver
TTITLE0=sion-Demo]
TTITLE1=Wolfgang Niedecken, Nick Nikitakis, Alexander Büchel - Müssjoh Kathedra
TTITLE1=le [Urversion-Demo]
TTITLE2=Wolfgang Niedecken, Nick Nikitakis, Alexander Büchel - Griefbar noh [Ur
TTITLE2=version-Demo]
TTITLE3=Wolfgang Niedecken mit Gaby Köster and Jürgen Zeltinger - Waade op 'ne Fr
TTITLE3=ünd [Live, ''Ich stelle mich'', 1990, Köln]
TTITLE4=Bläck Fööss, Wolfgang Niedecken, Willy Millowitsch, Klaus Heuser and Jürg
TTITLE4=en Zeltinger - Black Fööss-Bänd
TTITLE5=BAP - Sibbzehn Froore [Outtake vom Album ''X für 'e U'', Single-B-Seite
TTITLE5=''Vis à vis'']
TTITLE6=BAP - Ex, hopp and weg [Live, 1991, vom Album "...affrocke"]
TTITLE7=BAP - Heroes [Live, 1991, vom Album "...affrocke"]
EXTD=Bonus-CD für die digital remasterte CD\nX für 'e U (1990) von 2006
EXTT0=
EXTT1=
EXTT2=
EXTT3=
EXTT4=
EXTT5=
EXTT6=
EXTT7=
PLAYORDER=
